<?xml version="1.0" standalone="no"?>
<!DOCTYPE svg PUBLIC "-//W3C//DTD SVG 20010904//EN"
 "http://www.w3.org/TR/2001/REC-SVG-20010904/DTD/svg10.dtd">
<svg version="1.0" xmlns="http://www.w3.org/2000/svg"
 width="633.000000pt" height="534.000000pt" viewBox="0 0 633.000000 534.000000"
 preserveAspectRatio="xMidYMid meet">

<g transform="translate(0.000000,534.000000) scale(0.100000,-0.100000)"
fill="#000000" stroke="none">
<path d="M1650 5328 c-100 -10 -283 -55 -395 -96 -379 -141 -684 -383 -917
-731 -156 -234 -265 -528 -314 -851 -28 -180 -25 -540 5 -730 50 -320 136
-582 305 -934 229 -477 618 -946 1061 -1278 396 -296 792 -501 1202 -619 383
-111 774 -112 1146 -4 350 101 604 320 647 555 6 33 9 200 8 400 l-3 345 -25
0 c-19 0 -33 -13 -64 -60 -55 -84 -235 -261 -330 -325 -397 -265 -915 -319
-1486 -155 -166 48 -312 107 -505 205 -514 262 -916 594 -1233 1019 -187 250
-321 551 -383 859 -27 134 -37 430 -20 583 26 220 86 427 182 624 210 429 635
750 1098 829 119 20 847 24 884 4 19 -9 157 -107 766 -540 69 -48 133 -88 142
-88 10 0 25 7 34 16 25 25 146 286 143 309 -3 18 -12 20 -118 26 -91 4 -124
10 -156 27 -108 56 -143 182 -67 242 27 21 27 21 812 17 865 -4 826 -1 1026
-69 201 -68 348 -156 499 -298 337 -320 459 -761 316 -1151 -79 -217 -225
-371 -467 -492 -200 -101 -329 -192 -450 -319 -133 -140 -243 -337 -291 -520
l-27 -103 0 -519 c0 -482 1 -520 17 -530 28 -17 51 16 113 163 87 207 161 341
262 476 149 199 320 341 566 472 274 146 405 252 511 414 63 97 102 179 143
301 l28 83 0 525 c0 514 0 527 -23 630 -93 415 -328 764 -671 999 -222 152
-530 261 -820 290 -127 13 -3025 13 -3151 -1z"/>
<path d="M1758 4679 c-503 -53 -929 -439 -1062 -961 -122 -476 -40 -960 234
-1377 188 -285 500 -586 854 -822 65 -43 124 -79 131 -79 37 0 37 24 -4 272
-22 134 -54 340 -72 459 -32 216 -32 216 -13 255 27 54 66 79 123 79 59 0 109
-35 133 -92 16 -35 64 -320 153 -888 20 -126 40 -240 45 -252 12 -28 96 -71
226 -116 154 -53 238 -71 264 -57 26 14 26 2 -15 235 -14 83 -55 319 -90 525
-36 206 -72 417 -81 468 -15 88 -15 96 2 140 34 90 244 553 509 1120 148 318
195 428 189 442 -5 10 -104 86 -220 169 -209 149 -247 169 -271 139 -6 -7 -54
-110 -108 -228 -184 -404 -231 -505 -248 -537 -22 -41 -83 -73 -138 -73 -36 0
-48 6 -85 44 -67 67 -64 90 45 333 49 109 114 250 144 313 140 295 157 332
157 350 0 18 -106 106 -167 138 -25 14 -510 14 -635 1z m35 -313 c48 -18 74
-41 98 -88 54 -107 -28 -237 -149 -238 -74 0 -140 51 -162 125 -24 80 24 171
105 200 50 17 60 18 108 1z m-188 -661 c182 -48 332 -198 380 -382 20 -76 19
-225 -1 -294 -71 -238 -272 -389 -517 -389 -165 0 -271 44 -387 160 -112 112
-160 227 -160 385 1 150 43 256 148 366 74 79 121 110 220 145 81 29 224 33
317 9z"/>
<path d="M1371 3406 c-92 -33 -151 -122 -151 -227 0 -252 344 -330 463 -105
30 57 30 155 0 212 -57 107 -197 162 -312 120z"/>
<path d="M3965 4681 c-12 -5 -26 -15 -32 -22 -28 -34 -233 -505 -228 -525 2
-12 44 -48 97 -86 143 -100 343 -244 451 -325 54 -40 105 -73 114 -73 8 0 156
74 327 164 171 90 423 221 559 291 185 95 247 131 247 145 0 39 -147 186 -255
255 -74 47 -181 99 -255 123 -156 51 -182 54 -605 58 -220 2 -409 0 -420 -5z
m488 -334 c56 -34 77 -71 77 -138 0 -92 -58 -158 -147 -166 -97 -10 -173 55
-181 153 -4 44 0 61 21 97 15 25 41 51 59 60 49 24 125 22 171 -6z"/>
<path d="M5489 3882 c-62 -32 -208 -107 -324 -167 -252 -130 -687 -360 -732
-387 -37 -22 -44 -36 -240 -473 -270 -600 -312 -693 -392 -864 -44 -96 -93
-187 -108 -203 -35 -36 -93 -53 -136 -39 -39 13 -85 54 -98 88 -22 58 -27 44
266 693 89 196 134 297 253 565 22 50 63 137 91 195 28 57 51 113 51 123 0 24
-32 52 -179 156 -69 49 -182 130 -250 180 -68 50 -127 91 -131 91 -27 0 -65
-68 -184 -330 -73 -162 -203 -448 -288 -635 -188 -410 -218 -481 -218 -508 0
-23 47 -288 85 -487 14 -69 45 -244 70 -390 64 -385 66 -391 86 -411 24 -24
101 -25 225 -4 364 63 615 231 808 542 75 120 114 206 175 386 77 225 109 305
187 462 79 159 170 288 289 409 135 138 262 230 470 341 147 78 214 125 264
182 84 97 141 262 141 407 0 88 -14 129 -46 134 -11 2 -72 -24 -135 -56z"/>
</g>
</svg>
