<svg xmlns="http://www.w3.org/2000/svg" version="1.0" viewBox="0 0 597 579"><path d="M134 1c-8 1-18 6-24 12l-9 13-3 8-1 24v25l-10 17-20 34a7320 7320 0 0 0-42 69l-2 158v195h-7c-8 0-12 2-14 6-2 5 0 13 4 15h496c6-3 8-12 3-17l-3-4h-63v-79h6a240 240 0 0 0 44-2c27-7 50-22 69-46 13-15 28-43 35-65 4-12 4-13 3-17-2-5-6-7-16-9-11-2-43-2-57 0-19 3-40 12-61 25-13 7-16 11-16 16 0 3 1 5 3 8 6 5 10 4 21-3a146 146 0 0 1 102-25l-10 21c-14 28-25 42-42 55a98 98 0 0 1-78 19h-3V334l5-2c30-11 59-35 77-65 13-20 23-48 27-73 4-22 2-27-14-29-11-2-43-2-54 0l-35 8c-2 1-2 1-2-7l-2-13-22-31-26-34-5-7V64c0-31-3-40-14-51-7-7-14-10-22-12H134zm222 25 7 8c2 3 2 5 2 16v13h-40v-8c0-8 0-9-3-12-5-5-14-5-17 1-2 2-2 5-2 11v8h-33v-9c-1-9-2-12-7-14-4-2-9 0-12 3-2 2-3 2-3 16 1 16 2 20 9 24 4 2 5 2 56 2l52 1-1 5-1 4h-32l-35 2c-6 4-7 12-2 16l3 3h57l-1 2c-1 2-3 3-7 3-17 3-37 22-37 35 0 7 7 10 16 8h4l-4 13-6 17v3H187l-132-1 13-22 23-39 11-18 37-1h40c3 0 9-6 9-9 0-5-3-9-7-10-3-2-9-2-36-2h-31l3-5 2-5h41l45-1c10-3 13-9 13-24 0-13-1-17-6-19-5-3-9-2-12 1s-4 3-4 12v9h-32v-7l-1-10c-3-6-10-9-16-5-4 1-4 3-5 13l-1 9h-22V50c0-12 0-13 3-17l4-6c5-4 5-4 118-4l108 1 4 2zm42 105 19 25 6 8 1 9v10l-4 1-13 8-9 5h-27l-28-1a234 234 0 0 1 41-83l14 17zm129 56v4c-6 24-10 38-18 54-25 49-74 78-121 73l-13-2h-2v-21c1-21 2-26 6-38 16-38 55-64 109-71 10-1 37-1 39 1zm-213 32-2 11c-3 28-4 62 0 88 6 49 23 87 53 117 14 14 33 27 46 33l6 2v86h-58l-7-12a210 210 0 0 1-37-120c-1-25-2-36-5-51-4-24-16-52-28-69-25-33-60-55-102-66-31-8-46-7-49 4-1 4-1 5 16 35l30 54a492 492 0 0 0 95 126l-11-3c-15-5-33-8-50-9h-15l-4-4-8-6-4-3-1-14c-2-25-7-48-15-72-7-21-11-27-19-27-3 0-5 0-6 2-5 4-5 7 1 25 4 8 7 20 9 26 3 12 8 42 7 43l-9-4c-13-6-23-9-36-11a172 172 0 0 0-65 3V219h268zm61 0-5 8c-10 15-17 33-19 53a494 494 0 0 0 6 108c-1 1-9-16-13-29s-8-30-10-44a545 545 0 0 1 3-95l38-1zm-186 44c38 13 72 42 87 75 10 22 14 41 16 80 2 29 3 28-16 10-40-40-54-58-82-112a1085 1085 0 0 0-33-60l28 7zm211 77h14l3-1v106l-5-2c-7-4-17-11-23-17l-5-4-4-35-5-41v-7l7 1h18zm-286 83c10 3 27 10 38 16 10 6 11 7 8 7-5 0-9 3-11 7-2 5-2 5-8 5a190 190 0 0 0-95 43l-1-37v-38l6-1c11-4 20-5 37-5 14 1 19 1 26 3zm92 44c22 1 33 3 51 9 17 6 24 9 34 15 12 9 14 11 21 26s14 27 19 34l3 5h-32c-37-1-40-1-59-10-26-13-48-36-65-68l-6-11h34zm-50 18a193 193 0 0 0 58 71H45v-25l6-5a175 175 0 0 1 85-45c17-3 16-3 20 4z"/><path d="M232 96c-8 2-11 11-5 17l3 4h17c19 0 22-1 26-6s0-14-7-15h-34zm-129 76c-9 5-7 17 2 20 5 1 11 0 14-3s4-10 2-13c-3-5-13-8-18-4zm42 2c-4 4-4 10 0 15l4 3h73l76-1c7-3 7-16 0-19l-77-1h-73l-3 3zm297 61-39 33c-6 6-4 16 5 19 4 1 8 0 16-7l21-19c20-17 22-19 22-24 0-4-2-7-6-10-5-2-7-1-19 8zM94 264c-2 0-3 2-4 3-2 2-2 4-3 29 0 29 0 32 5 36s14 1 16-6l1-30-1-27-2-3c-3-2-9-4-12-2zm134 61c-6 5-5 8 7 27 9 16 11 18 16 19 9 2 16-7 12-16l-20-31-7-2c-4 0-6 1-8 3zm15 166c-6 2-9 10-6 16a271 271 0 0 0 44 23c4 1 7-1 11-4 2-2 3-4 3-7l-2-7c-1-2-11-7-32-17-11-4-15-5-19-4zm245-102c-28 19-29 20-31 23-3 8 1 16 9 17 5 0 7-1 32-19 17-13 19-18 12-25-3-2-4-3-7-3-4 0-6 1-15 7zm24 99c-9 6-15 9-34 11l-6 3c-5 5-5 11 0 16l3 3h9c12-1 20-3 31-9 16-7 20-16 12-24-4-4-9-4-15 0z"/></svg>