<?xml version="1.0" standalone="no"?>
<!DOCTYPE svg PUBLIC "-//W3C//DTD SVG 20010904//EN"
 "http://www.w3.org/TR/2001/REC-SVG-20010904/DTD/svg10.dtd">
<svg version="1.0" xmlns="http://www.w3.org/2000/svg"
 width="644.000000pt" height="684.000000pt" viewBox="0 0 644.000000 684.000000"
 preserveAspectRatio="xMidYMid meet">

<g transform="translate(0.000000,684.000000) scale(0.100000,-0.100000)"
fill="#000000" stroke="none">
<path d="M3135 6811 c-173 -43 -285 -124 -393 -282 l-31 -47 -95 -4 c-83 -3
-102 -8 -168 -40 -149 -74 -249 -216 -272 -385 l-11 -85 -62 -23 c-126 -48
-223 -128 -310 -259 -49 -73 -103 -210 -103 -263 0 -18 -2 -33 -5 -33 -3 0
-33 23 -66 50 -153 127 -319 217 -451 244 -216 45 -483 -5 -667 -124 -90 -58
-215 -183 -278 -278 -102 -153 -140 -296 -130 -490 6 -114 25 -185 73 -271
l28 -49 -26 -58 c-37 -85 -52 -157 -51 -254 0 -151 50 -285 154 -415 l59 -74
-71 -88 c-103 -128 -183 -301 -224 -488 -22 -98 -31 -371 -16 -475 39 -262
156 -496 335 -668 47 -45 97 -88 111 -94 21 -9 25 -18 25 -54 0 -164 105 -337
242 -399 54 -25 80 -30 179 -34 132 -7 159 -19 159 -75 1 -49 43 -157 88 -223
87 -127 207 -224 354 -282 110 -44 191 -55 333 -45 276 20 374 6 534 -72 79
-39 110 -62 181 -133 122 -122 190 -263 215 -444 12 -92 -15 -87 473 -87 336
0 432 3 446 13 12 9 23 44 36 113 21 116 36 159 87 257 53 102 172 219 278
274 165 85 259 98 555 79 115 -8 148 -6 214 9 279 62 481 248 546 502 11 43
27 84 36 93 11 11 47 17 134 21 107 5 126 9 182 37 144 71 238 220 238 377 0
36 4 65 9 65 4 0 49 39 100 86 157 148 249 311 296 523 46 206 42 396 -12 581
-30 104 -67 182 -131 279 l-49 73 30 60 c26 50 31 70 30 126 -4 194 -159 393
-379 485 -116 49 -180 61 -324 60 -149 0 -229 -16 -362 -72 -39 -17 -73 -29
-75 -28 -2 2 13 35 32 73 87 170 85 388 -4 569 -67 136 -178 241 -303 287 -32
11 -58 23 -58 26 0 3 15 28 34 56 70 105 96 195 96 330 0 179 -60 327 -185
452 -64 64 -165 127 -237 148 -13 4 -18 16 -18 38 0 18 -7 62 -15 97 -52 217
-248 381 -458 381 l-72 0 -30 51 c-70 118 -256 248 -406 284 -89 21 -284 19
-374 -4z m280 -256 c118 -19 244 -121 283 -230 32 -89 56 -128 92 -149 42 -25
94 -24 154 4 97 44 200 11 246 -80 27 -53 25 -75 -11 -132 -58 -90 -47 -178
29 -236 33 -25 41 -27 121 -24 74 2 92 -1 138 -23 66 -33 136 -110 164 -183
17 -43 23 -78 23 -142 0 -97 -13 -136 -73 -214 -59 -78 -73 -113 -74 -182 -1
-48 5 -74 27 -118 35 -70 84 -109 177 -136 81 -24 140 -67 185 -133 42 -61 54
-104 54 -194 0 -147 -67 -249 -197 -297 -176 -66 -242 -245 -148 -401 l35 -57
-92 -101 c-349 -390 -798 -1067 -999 -1509 -28 -62 -55 -117 -60 -123 -5 -5
-9 155 -9 396 l0 405 268 186 c147 103 280 200 296 217 79 82 18 221 -97 221
-49 0 -52 -1 -247 -140 -91 -65 -177 -125 -192 -135 l-28 -17 0 373 1 374 42
29 c283 198 372 259 428 295 76 50 99 82 99 141 0 81 -57 140 -136 140 -42 0
-75 -21 -341 -211 -45 -33 -84 -59 -87 -59 -4 0 -5 143 -4 317 l3 317 110 77
c181 126 202 145 215 184 29 89 -39 185 -132 185 -29 0 -91 -32 -145 -76 -23
-19 -44 -34 -47 -34 -3 0 -6 60 -6 133 l0 132 163 112 c89 62 178 123 197 135
81 54 105 147 54 208 -34 40 -74 60 -121 60 -44 0 -66 -12 -197 -110 l-96 -70
0 155 c0 177 -9 213 -62 245 -77 47 -177 12 -197 -68 -5 -21 -8 -335 -8 -729
1 -381 -1 -693 -5 -693 -7 0 -180 103 -301 179 -78 50 -124 63 -172 50 -70
-20 -111 -111 -82 -180 19 -44 43 -64 152 -129 50 -29 161 -98 248 -153 l157
-100 0 -144 0 -145 -63 35 c-34 20 -114 67 -177 107 -127 78 -144 85 -195 76
-104 -20 -145 -150 -73 -227 13 -13 132 -89 265 -169 l242 -145 1 -314 c0
-246 -3 -312 -12 -308 -7 3 -92 50 -188 106 -96 55 -188 103 -205 107 -47 8
-106 -16 -132 -55 -47 -70 -21 -159 60 -207 145 -85 380 -222 425 -246 l52
-30 0 -134 c0 -74 -2 -134 -5 -134 -2 0 -48 26 -102 57 -233 135 -249 143
-281 143 -76 0 -132 -60 -132 -142 0 -39 6 -54 31 -82 29 -33 54 -50 190 -124
31 -17 110 -62 175 -101 l119 -69 0 -909 0 -908 -102 -3 -102 -3 -5 43 c-4 24
-22 180 -42 348 -52 448 -87 663 -155 935 -130 520 -405 1297 -586 1660 -43
84 -44 90 -27 100 42 23 110 102 122 141 41 139 -29 275 -175 340 -75 33 -95
53 -129 127 -51 114 -31 248 50 344 15 17 59 47 99 66 40 19 84 48 99 63 65
69 93 203 68 326 -24 122 -78 192 -197 256 -61 33 -85 53 -110 90 -45 69 -56
112 -51 212 3 73 9 98 36 151 37 77 108 152 177 187 44 23 63 26 150 26 113 1
141 12 175 69 31 50 26 108 -16 182 -41 74 -40 110 6 173 54 75 140 90 245 43
44 -20 56 -22 92 -12 61 17 98 57 118 127 30 106 96 183 202 235 87 44 152 52
268 34z m-2245 -1156 c134 -44 300 -157 524 -357 94 -84 182 -192 197 -241 14
-48 23 -153 16 -183 -4 -13 -37 -71 -75 -130 -78 -120 -112 -211 -120 -315 -2
-40 -7 -73 -11 -73 -11 0 -145 222 -194 322 -60 123 -111 276 -139 421 -18 94
-26 116 -53 145 -24 26 -41 35 -76 39 -97 11 -158 -63 -145 -178 23 -200 131
-509 237 -676 22 -36 39 -67 37 -69 -2 -2 -96 30 -209 71 -246 90 -273 93
-330 36 -35 -34 -39 -44 -39 -87 0 -58 26 -106 69 -129 31 -15 90 -37 446
-164 255 -90 353 -138 398 -194 187 -230 522 -1021 747 -1762 65 -217 146
-569 129 -563 -4 2 -61 53 -125 113 -357 334 -549 659 -635 1075 -6 30 -14
177 -18 327 l-6 272 -33 34 c-19 19 -52 43 -75 53 -23 10 -168 76 -322 147
-506 233 -474 220 -513 213 -99 -16 -149 -126 -92 -205 26 -38 129 -90 671
-341 l97 -45 5 -220 c4 -173 10 -242 27 -320 28 -133 81 -287 141 -414 27 -57
48 -106 46 -108 -2 -2 -65 28 -140 67 -75 38 -149 70 -164 70 -110 -1 -178
-115 -120 -201 18 -27 66 -57 233 -144 116 -60 244 -130 285 -155 107 -65 287
-198 414 -305 124 -105 352 -331 343 -340 -3 -3 -35 10 -70 30 -124 68 -306
115 -447 115 -36 0 -121 -5 -188 -12 -146 -14 -212 -5 -318 45 -129 62 -209
167 -240 316 -20 95 -44 139 -100 189 -64 56 -119 72 -256 75 -131 3 -151 11
-189 79 -20 36 -24 57 -24 139 -1 90 -3 99 -31 139 -17 25 -55 59 -89 79 -122
75 -199 157 -261 281 -176 351 -128 788 120 1095 87 107 115 164 115 233 0 71
-18 105 -102 198 -99 109 -123 163 -123 284 0 102 2 109 70 204 29 40 35 57
35 100 0 54 -11 78 -74 160 -44 58 -66 130 -66 216 0 139 57 259 179 381 142
141 298 204 481 194 48 -2 113 -14 150 -26z m4565 -1571 c121 -40 237 -138
266 -225 10 -32 9 -36 -26 -74 -63 -70 -81 -142 -52 -212 8 -18 39 -63 70
-102 104 -128 157 -261 172 -430 12 -135 -33 -339 -107 -477 -40 -75 -124
-167 -190 -209 -123 -76 -148 -119 -148 -249 0 -118 -20 -162 -87 -192 -39
-17 -59 -20 -123 -14 -186 15 -309 -75 -346 -255 -21 -103 -52 -165 -117 -235
-111 -120 -231 -156 -447 -134 -225 23 -397 -2 -555 -79 -44 -22 -81 -39 -82
-37 -1 1 34 51 79 111 96 130 281 318 428 436 120 96 483 341 613 413 134 75
165 122 131 205 -16 37 -28 50 -67 70 -35 17 -56 22 -81 17 -19 -4 -112 -53
-207 -110 -153 -92 -233 -146 -446 -300 -29 -21 -53 -33 -53 -28 0 12 184 270
280 394 212 272 490 485 905 693 l199 100 20 47 c18 45 19 48 2 92 -24 61 -65
90 -130 90 -44 1 -72 -10 -201 -75 -164 -83 -297 -162 -417 -245 -84 -59 -93
-63 -79 -36 11 22 47 189 56 264 12 102 -43 168 -138 168 -82 0 -125 -56 -142
-185 -10 -75 -50 -228 -85 -330 -53 -150 -133 -302 -239 -455 -144 -206 -247
-362 -304 -460 -200 -344 -460 -971 -567 -1368 -18 -67 -37 -122 -42 -122 -12
0 -10 437 3 566 29 294 144 677 314 1044 249 538 704 1198 1095 1588 310 310
592 423 845 340z"/>
<path d="M3989 5351 c-65 -65 -20 -176 71 -176 52 0 89 36 97 93 5 37 2 45
-30 77 -46 46 -95 49 -138 6z"/>
<path d="M781 4754 c-38 -32 -49 -80 -27 -122 45 -88 155 -80 186 12 21 65
-33 136 -104 136 -13 0 -38 -12 -55 -26z"/>
<path d="M713 2686 c-67 -30 -94 -127 -53 -194 17 -27 57 -51 246 -143 243
-119 285 -131 339 -95 90 59 83 185 -15 238 -99 53 -424 200 -453 204 -17 2
-47 -2 -64 -10z"/>
<path d="M5324 3481 c-58 -35 -66 -117 -16 -166 24 -24 33 -27 67 -27 35 0 44
3 68 28 55 54 40 141 -28 170 -44 18 -54 18 -91 -5z"/>
<path d="M5541 2524 c-38 -32 -49 -80 -27 -122 30 -57 77 -75 131 -50 70 32
72 148 4 184 -41 21 -74 17 -108 -12z"/>
</g>
</svg>
