<?xml version="1.0" standalone="no"?>
<!DOCTYPE svg PUBLIC "-//W3C//DTD SVG 20010904//EN"
 "http://www.w3.org/TR/2001/REC-SVG-20010904/DTD/svg10.dtd">
<svg version="1.0" xmlns="http://www.w3.org/2000/svg"
 width="576.000000pt" height="660.000000pt" viewBox="0 0 576.000000 660.000000"
 preserveAspectRatio="xMidYMid meet">

<g transform="translate(0.000000,660.000000) scale(0.100000,-0.100000)"
fill="#000000" stroke="none">
<path d="M3845 6579 c-137 -18 -350 -81 -466 -139 -170 -86 -361 -253 -461
-406 -134 -202 -205 -412 -223 -657 l-7 -88 -59 88 c-206 308 -614 676 -750
676 -81 0 -149 -75 -149 -165 0 -57 17 -76 165 -183 135 -98 354 -312 449
-439 72 -96 180 -280 167 -284 -5 -2 -27 6 -48 16 -112 57 -328 106 -523 118
-296 18 -669 -83 -937 -253 -150 -94 -367 -296 -484 -448 -237 -309 -403 -703
-480 -1140 -15 -88 -22 -181 -26 -345 -8 -326 12 -499 93 -817 185 -729 636
-1362 1273 -1786 147 -99 226 -143 376 -214 285 -134 550 -146 836 -37 253 95
277 96 489 17 145 -54 215 -72 332 -85 248 -26 511 41 793 205 595 345 1056
868 1308 1483 155 380 230 758 231 1169 1 299 -21 457 -99 718 -143 484 -369
846 -718 1154 -150 132 -155 134 -207 97 -23 -16 -73 -49 -113 -74 -97 -61
-96 -74 3 -154 119 -96 320 -302 402 -412 273 -368 418 -786 435 -1254 23
-643 -205 -1290 -638 -1810 -231 -278 -594 -569 -884 -710 -185 -90 -243 -105
-405 -105 -134 0 -136 1 -255 43 -248 90 -270 95 -390 95 -122 0 -184 -13
-328 -69 -239 -93 -409 -97 -615 -12 -248 102 -587 342 -825 581 -225 228
-380 442 -506 702 -199 407 -276 716 -288 1145 -6 218 5 336 48 550 42 211
146 475 267 675 82 137 255 338 401 468 165 147 399 260 626 303 70 13 124 15
245 11 188 -6 282 -28 515 -117 206 -79 285 -99 420 -107 158 -8 204 0 535
102 114 35 238 60 395 80 397 50 596 110 796 240 288 186 517 463 714 860 93
188 165 359 165 391 0 45 -31 63 -213 124 -284 95 -577 161 -867 194 -144 17
-400 19 -515 5z m540 -315 c104 -14 349 -59 388 -70 9 -3 17 -9 17 -14 0 -15
-225 -155 -359 -223 -112 -56 -254 -109 -413 -153 -29 -8 -21 10 37 82 31 38
67 93 82 122 24 49 25 56 13 95 -25 86 -75 127 -152 127 -58 0 -77 -15 -148
-119 -119 -174 -278 -314 -539 -472 -64 -39 -159 -104 -210 -145 -51 -41 -95
-73 -97 -71 -8 8 47 207 75 270 64 142 165 272 291 372 244 194 577 260 1015
199z m565 -368 c0 -32 -202 -306 -307 -416 -121 -128 -225 -205 -366 -275
-154 -76 -257 -100 -591 -140 -155 -19 -315 -56 -534 -125 -90 -28 -170 -50
-178 -48 -21 4 116 177 211 266 192 180 361 253 729 317 403 69 690 184 960
382 53 39 76 51 76 39z"/>
<path d="M1230 4262 c-51 -33 -172 -157 -243 -249 -146 -190 -278 -468 -332
-699 -24 -103 -45 -286 -45 -394 0 -77 4 -101 20 -128 57 -93 197 -97 257 -6
14 22 19 59 24 183 9 190 32 299 99 471 80 202 185 363 347 531 51 53 97 109
103 123 22 60 7 118 -44 165 -20 19 -40 26 -84 29 -50 3 -63 0 -102 -26z"/>
</g>
</svg>
