<svg width="52" height="64" viewBox="0 0 52 64" fill="none" xmlns="http://www.w3.org/2000/svg">
<g opacity="0.868">
<path fill-rule="evenodd" clip-rule="evenodd" d="M24.5958 0C25.4403 0 26.2848 0 27.1293 0C31.7664 0.734955 35.6897 2.83554 38.8993 6.30176C43.0837 10.8125 46.2858 15.9749 48.5054 21.7891C50.0101 25.814 51.0481 29.944 51.6195 34.179C51.6195 35.9948 51.6195 37.8105 51.6195 39.6263C50.6485 48.5557 46.4261 55.4092 38.9521 60.1871C35.5385 62.1871 31.8791 63.3797 27.9737 63.7652C26.5663 63.7652 25.1587 63.7652 23.7513 63.7652C13.7791 62.5213 6.6186 57.3232 2.26957 48.171C0.911723 45.0971 0.155201 41.8928 0 38.5582C0 38.5226 0 38.487 0 38.4514C0.257616 26.6475 4.18098 16.2869 11.7701 7.36985C13.5418 5.39755 15.5299 3.7064 17.7343 2.2964C19.8881 1.08933 22.1752 0.323865 24.5958 0ZM24.4902 2.77704C27.5412 2.57777 30.3561 3.30763 32.9351 4.96664C35.9027 7.11481 38.4538 9.69604 40.5883 12.7103C45.683 20.0747 48.4804 28.2635 48.9804 37.2765C48.6721 46.5756 44.5904 53.5717 36.7353 58.2645C28.3913 62.4131 20.3335 61.9148 12.5618 56.7692C6.25586 51.9843 2.98346 45.5757 2.74459 37.5435C3.22822 27.2416 6.65896 18.1094 13.0368 10.1469C15.1079 7.62244 17.5535 5.57526 20.3733 4.00535C21.7057 3.41078 23.078 3.00134 24.4902 2.77704Z" fill="black"/>
<path fill-rule="evenodd" clip-rule="evenodd" d="M17.8399 9.18561C18.3782 9.2785 18.5717 9.56333 18.4204 10.0401C15.6416 12.2817 13.2313 14.863 11.1895 17.7838C10.7417 18.0206 10.425 17.8959 10.2394 17.4099C12.3343 14.2577 14.8678 11.5162 17.8399 9.18561Z" fill="black"/>
</g>
</svg>
