<?xml version="1.0" encoding="UTF-8"?>
<svg version="1.1" xmlns="http://www.w3.org/2000/svg" width="701" height="461">
<path d="M0 0 C6.84802348 5.97595615 13.98237895 12.43588586 15.43359375 21.796875 C15.69607156 27.68274103 15.07306396 31.4866048 11 36 C6.44611224 40.09849898 2.77059186 42.12099754 -3.32421875 42.7109375 C-4.35353516 42.82179688 -5.38285156 42.93265625 -6.44335938 43.046875 C-8.58601193 43.26359121 -10.72924621 43.47463974 -12.87304688 43.6796875 C-19.577749 44.41399215 -25.0329361 45.82249816 -31 49 C-28.00127188 50.63031289 -25.14333791 51.58404401 -21.8359375 52.41015625 C-20.80936035 52.67296387 -19.7827832 52.93577148 -18.72509766 53.20654297 C-17.61956543 53.48900879 -16.5140332 53.77147461 -15.375 54.0625 C5.49623135 59.56015945 25.56007591 66.61446982 45 76 C45.68674805 76.32822754 46.37349609 76.65645508 47.08105469 76.99462891 C51.76659538 79.24382538 56.39249922 81.59548063 61 84 C61.7518457 84.38849121 62.50369141 84.77698242 63.27832031 85.17724609 C85.37049125 96.66644101 106.20931717 110.8187875 124.5234375 127.734375 C125.88434378 128.97936813 127.25344319 130.2162765 128.65649414 131.41357422 C134.99104439 136.82692752 140.82545572 142.71344364 146.6875 148.625 C147.71655953 149.65909041 148.74585507 150.69294602 149.77539062 151.7265625 C151.66772395 153.62697857 153.5584121 155.528976 155.44799805 157.43212891 C157.96020306 159.95995559 160.47870099 162.4812509 163 165 C163.25652344 164.33097656 163.51304687 163.66195312 163.77734375 162.97265625 C169.96194545 147.45909305 178.1620753 133.46335588 188 120 C188.41894531 119.42266113 188.83789062 118.84532227 189.26953125 118.25048828 C195.58872078 109.60172451 202.58618609 101.7203466 210 94 C210.48726562 93.48550293 210.97453125 92.97100586 211.4765625 92.44091797 C218.57286028 84.96751078 226.11007557 78.44802935 234.34326172 72.25537109 C235.84991172 71.11372737 237.33450992 69.94312737 238.81640625 68.76953125 C273.79832714 41.45079075 273.79832714 41.45079075 290 42 C296.20026125 43.96398699 299.66336906 47.25348757 303.08276367 52.73608398 C304.32527471 55.80284067 304.27700728 58.41674087 304.30078125 61.72265625 C304.30638062 62.37581818 304.31197998 63.0289801 304.31774902 63.70193481 C304.32967155 65.82235695 304.32337793 67.94207834 304.3125 70.0625 C304.30976578 71.14853012 304.30976578 71.14853012 304.30697632 72.25650024 C304.2580767 83.75842433 303.49232543 94.75509867 301 106 C300.83371094 106.80308594 300.66742187 107.60617188 300.49609375 108.43359375 C296.13796138 129.38491157 289.41188991 149.77254996 280 169 C279.62117676 169.77682129 279.24235352 170.55364258 278.85205078 171.35400391 C270.54355224 188.19224328 260.43269565 202.95610394 248 217 C251.04735381 221.23628352 254.18332951 225.24935228 257.75 229.0625 C280.98091289 255.06528318 293.06240655 290.70620524 301 324 C301.19207031 324.75442383 301.38414062 325.50884766 301.58203125 326.28613281 C304.14469943 336.4732279 304.32558587 346.68927107 304.4375 357.125 C304.44989716 357.8087973 304.46229431 358.4925946 304.47506714 359.19711304 C304.68495433 373.14590985 304.68495433 373.14590985 300 379 C295.61360292 382.46993364 290.67075313 384.51379307 285 384 C251.17359374 375.30451139 215.74704252 344.36143599 194 318 C192.77023437 316.52853516 192.77023437 316.52853516 191.515625 315.02734375 C181.98036873 303.40052705 174.22691296 290.71444426 167.4375 277.3125 C167.11499268 276.67779785 166.79248535 276.0430957 166.46020508 275.38916016 C164.46414539 271.31920905 163.12692052 267.36751784 162 263 C157.83677634 266.58771922 153.73496993 270.23086923 149.70556641 273.96875 C143.66365655 279.56563015 137.45907084 284.88610249 131 290 C130.32098633 290.54092285 129.64197266 291.0818457 128.94238281 291.63916016 C113.01915166 304.29954755 113.01915166 304.29954755 104.86328125 309.25 C102.64035353 310.60862431 100.46418298 311.99988553 98.29296875 313.4375 C59.21296843 339.28502624 16.97079022 356.84183195 -29 366 C-26.35068965 368.16259642 -24.24471562 369.42858566 -20.91796875 370.2109375 C-19.76651367 370.50097656 -19.76651367 370.50097656 -18.59179688 370.796875 C-17.00177938 371.17920252 -15.41063754 371.55688701 -13.81835938 371.9296875 C-7.20090228 373.61031152 -2.00760952 376.02096652 1.9375 381.875 C3.65007898 386.91199699 3.69952222 390.94048145 1.5625 395.8125 C-9.01614047 415.00252499 -30.71699441 425.79280723 -50.88671875 431.84765625 C-79.29542483 439.92861202 -109.92919753 434.78464782 -135.5 420.625 C-142.23258455 416.74846263 -148.24018868 412.22378827 -154 407 C-154.60714844 406.4740625 -155.21429688 405.948125 -155.83984375 405.40625 C-166.56767635 395.51140205 -174.2836328 382.28359255 -180 369 C-180 368.34 -180 367.68 -180 367 C-180.66209473 366.89042969 -181.32418945 366.78085937 -182.00634766 366.66796875 C-241.67071941 356.36620672 -298.46679344 326.59967412 -343 286 C-344.728887 284.45801971 -346.45805194 282.91635099 -348.1875 281.375 C-357.54700068 272.93222767 -357.54700068 272.93222767 -360 270 C-360 269.34 -360 268.68 -360 268 C-360.66 268 -361.32 268 -362 268 C-363.43812673 266.43059199 -364.8003005 264.79125965 -366.125 263.125 C-366.93582031 262.10792969 -367.74664062 261.09085937 -368.58203125 260.04296875 C-369.37996094 259.03878906 -370.17789062 258.03460938 -371 257 C-371.64324219 256.23300781 -372.28648437 255.46601563 -372.94921875 254.67578125 C-396.72085279 226.11991898 -396.72085279 226.11991898 -397 213 C-396.06562311 206.09438452 -393.54109745 200.51276091 -390.125 194.5 C-389.6403125 193.63487793 -389.155625 192.76975586 -388.65625 191.87841797 C-383.67764105 183.16106518 -378.02465662 175.0194426 -372 167 C-371.54657227 166.38962891 -371.09314453 165.77925781 -370.62597656 165.15039062 C-331.37268206 112.56416556 -274.62249427 76.92036413 -213.0625 56.1875 C-211.93046143 55.80231201 -210.79842285 55.41712402 -209.63208008 55.02026367 C-204.66110405 53.36956419 -199.81769333 51.8726538 -194.6484375 50.99609375 C-186.69215892 49.77489053 -186.69215892 49.77489053 -180.4296875 45.13134766 C-177.43156695 40.4406406 -175.26667395 35.40041285 -173.06933594 30.29980469 C-170.57439207 24.9339665 -166.79995365 20.50011261 -163 16 C-162.15824219 14.99582031 -161.31648437 13.99164063 -160.44921875 12.95703125 C-144.97652647 -4.96408706 -124.03010605 -16.63803399 -101.3125 -22.75 C-100.52834717 -22.96108398 -99.74419434 -23.17216797 -98.9362793 -23.38964844 C-65.29882989 -32.00140112 -26.52554814 -21.99333522 0 0 Z M-127 38 C-127.70505436 39.31343846 -128.380579 40.64407233 -129 42 C-122.88057013 42.27305244 -116.76471951 42.47201454 -110.640625 42.60424805 C-108.56056945 42.65938634 -106.48093686 42.73432486 -104.40234375 42.82983398 C-92.5100688 43.84421496 -92.5100688 43.84421496 -81.94042969 39.63427734 C-79.93214358 36.83632534 -78.49169288 34.09358635 -77 31 C-71.99267747 25.47382662 -65.82489346 21.96027535 -59.34375 18.3828125 C-58.5703125 17.92648438 -57.796875 17.47015625 -57 17 C-57 16.67 -57 16.34 -57 16 C-84.29353411 15.22121171 -106.88452213 17.85367017 -127 38 Z M-119 84 C-115.09514996 87.95421014 -115.09514996 87.95421014 -110.94921875 91.6484375 C-110.41997803 92.09219727 -109.8907373 92.53595703 -109.34545898 92.99316406 C-108.79833252 93.44916992 -108.25120605 93.90517578 -107.6875 94.375 C-106.52598726 95.35670647 -105.3645287 96.33847704 -104.203125 97.3203125 C-102.4187931 98.82176251 -100.62639625 100.29543843 -98.796875 101.7421875 C-76.65533158 119.69730464 -61.98353377 151.04002634 -59 179 C-57.97978187 202.29865522 -59.16487053 227.64823457 -74 247 C-78.48426766 251.66632126 -82.0726779 254.11519761 -88.6875 254.3125 C-93.92863722 254.25128964 -97.73247847 253.0425848 -102 250 C-105.8448918 246.05392684 -107.77733716 242.38911208 -108.2890625 236.8984375 C-107.92299321 231.96144896 -106.26307547 228.40931827 -104.125 224 C-95.62615403 206.10137033 -94.12673467 185.91942752 -100.70019531 166.98291016 C-110.98078869 139.74257061 -131.10491926 121.16320661 -157 109 C-159.54766012 107.87971744 -162.11383793 106.8089493 -164.6875 105.75 C-172.34460763 102.55734573 -176.70334679 99.10600338 -181 92 C-189.95653552 94.01768108 -198.41586758 96.78729955 -207 100 C-207 104.0118538 -205.00336223 105.74164713 -202.5625 108.6875 C-176.34680627 141.66024909 -166.82568869 185.30166158 -171.3203125 226.546875 C-174.89402439 256.51515337 -185.32128239 285.43091361 -203 310 C-204.33930237 311.99600775 -205.67407318 313.99508208 -207 316 C-201.63715493 318.48013612 -196.37253356 320.09527801 -190.625 321.4375 C-189.71943359 321.64995361 -188.81386719 321.86240723 -187.88085938 322.08129883 C-180.79279661 323.69249596 -173.67324181 325.01701089 -166.5 326.1875 C-165.09935303 326.4194104 -165.09935303 326.4194104 -163.67041016 326.65600586 C-144.8330509 329.58650936 -126.04310433 330.44271983 -107 330.4375 C-105.23585251 330.43860275 -105.23585251 330.43860275 -103.43606567 330.43972778 C-72.28601872 330.38890002 -43.0186579 326.14837555 -13 318 C-13 317.67 -13 317.34 -13 317 C-13.92941406 316.96261719 -14.85882813 316.92523438 -15.81640625 316.88671875 C-24.18811826 316.44150779 -30.07153288 316.12491703 -36.75 310.8125 C-40.10289462 306.62138173 -42.10477236 302.94729217 -41.91015625 297.47265625 C-40.98542172 291.61600421 -39.3873068 287.99732398 -35 284 C-28.75222109 280.50859414 -22.99255365 280.51526592 -15.9375 280.5625 C-14.87466797 280.54251953 -13.81183594 280.52253906 -12.71679688 280.50195312 C-4.42286014 280.5071336 -1.21949173 281.99514105 4.8125 287.625 C7.91992856 291.62026529 8.40480676 296.05066448 8 301 C6.54397095 305.49905272 4.01934508 309.37678591 1 313 C34.97140152 305.10961727 65.3771444 285.56850602 93 265 C93.60569824 264.55414551 94.21139648 264.10829102 94.83544922 263.64892578 C102.35677871 258.10543527 109.28998233 252.14087618 116.08203125 245.734375 C118.34694702 243.61196397 120.63294721 241.56729943 123 239.5625 C132.33991238 231.47187526 142.12963898 222.30554154 149 212 C148.21496094 211.154375 147.42992187 210.30875 146.62109375 209.4375 C145.55983839 208.29171987 144.49864376 207.14588349 143.4375 206 C142.92380859 205.44699219 142.41011719 204.89398438 141.88085938 204.32421875 C139.16100736 201.38475136 136.49529403 198.41650307 133.89453125 195.37109375 C129.16186864 189.94085537 124.05924766 184.87321882 118.96777344 179.7824707 C117.26205402 178.07456944 115.56450973 176.35881955 113.8671875 174.64257812 C107.22059596 167.9625651 100.39910093 161.84791845 93 156 C91.80918457 154.98303611 90.62106677 153.96289098 89.4375 152.9375 C87.25801386 150.79258529 87.25801386 150.79258529 85 151 C85.18175781 151.55945313 85.36351562 152.11890625 85.55078125 152.6953125 C94.73650284 181.99540907 94.60300135 210.80206528 82 239 C78.19951601 246.21447809 73.8675242 251.27045079 66 254 C59.45025092 254.93008395 54.08516078 254.49287278 48.65625 250.5546875 C45.18265215 247.29409329 43.56788644 243.70365932 42.0625 239.1875 C41.92384111 232.11589673 44.87839932 226.05590133 48.0625 219.875 C55.55425369 205.22528362 55.29813151 188.21274639 51.06640625 172.54296875 C48.40492399 164.33749923 44.48259262 157.31729493 39.890625 150.08203125 C36.79191527 145.0306222 36.44494195 140.78846248 37 135 C38.60139761 130.75629632 40.63468199 128.01718166 44 125 C43.25041378 121.63354306 43.25041378 121.63354306 39.5546875 120.0546875 C38.00103163 119.31487569 36.44051428 118.58937603 34.875 117.875 C34.03332275 117.48465576 33.19164551 117.09431152 32.32446289 116.69213867 C18.86032179 110.54747126 5.01251342 105.25311743 -9 100.5 C-9.71099854 100.25677002 -10.42199707 100.01354004 -11.15454102 99.76293945 C-15.45358195 98.34782342 -19.52586261 97.51266158 -24 97 C-23.236875 97.886875 -22.47375 98.77375 -21.6875 99.6875 C-20.86765625 100.65042969 -20.86765625 100.65042969 -20.03125 101.6328125 C-18.52399353 103.389346 -17.00058832 105.13204965 -15.46875 106.8671875 C7.35119777 132.9267783 18.75137398 164.27331889 17.21582031 199.01660156 C15.94765585 216.54711025 10.91946025 235.25090688 -0.4375 248.9375 C-5.46094069 252.98075714 -10.35363179 254.60447247 -16.73046875 254.34375 C-22.21366285 253.513249 -26.4434034 251.11754739 -29.9375 246.8125 C-32.50046371 242.71524509 -33.40915593 238.81545055 -33 234 C-31.62032236 229.06382002 -29.34230555 224.62701969 -26.9375 220.125 C-22.34023787 211.05449826 -21.46655971 201.26826532 -21.5625 191.25 C-21.57152344 190.11256348 -21.58054687 188.97512695 -21.58984375 187.80322266 C-22.10732966 162.51469267 -34.0369597 141.48113009 -51.875 124.0625 C-52.62515381 123.35230713 -53.37530762 122.64211426 -54.14819336 121.91040039 C-58.60230408 117.64992474 -62.25281305 113.97826563 -63.43359375 107.69140625 C-63.44415087 101.9377761 -62.13802688 98.80510366 -59 94 C-59 93.34 -59 92.68 -59 92 C-56.525 91.01 -56.525 91.01 -54 90 C-56.43748096 87.56251904 -57.50962609 87.59542529 -60.875 87.18359375 C-61.86113281 87.05919922 -62.84726562 86.93480469 -63.86328125 86.80664062 C-64.89839844 86.68482422 -65.93351563 86.56300781 -67 86.4375 C-68.00417969 86.31181641 -69.00835937 86.18613281 -70.04296875 86.05664062 C-73.02693301 85.68798786 -76.01295201 85.3426394 -79 85 C-79.80228027 84.89776123 -80.60456055 84.79552246 -81.43115234 84.69018555 C-89.14710097 83.78058185 -96.86915094 83.88862247 -104.625 83.9375 C-106.02473797 83.94252803 -107.4244777 83.94708862 -108.82421875 83.95117188 C-112.21619169 83.96286833 -115.60807233 83.97925914 -119 84 Z M257 108 C225.94006868 136.74963771 197.06906577 169.5085916 193.796875 213.74609375 C193.26037316 244.55024096 208.78869036 272.53706213 229.4765625 294.32421875 C231.5853027 296.5602668 233.58641577 298.83568144 235.5625 301.1875 C241.52852657 308.05486871 248.46911242 313.92483663 256 319 C257.20004557 315.39986329 256.71610874 314.52897199 255.41015625 311.0546875 C255.04229004 310.06863525 254.67442383 309.08258301 254.29541016 308.06665039 C253.8885498 307.01340576 253.48168945 305.96016113 253.0625 304.875 C252.44060791 303.2516272 252.44060791 303.2516272 251.80615234 301.59545898 C242.78964017 278.36563239 230.99960303 258.87067794 214.17578125 240.390625 C212.13865229 238.15234327 210.12390342 235.89743758 208.125 233.625 C207.59132813 233.01914062 207.05765625 232.41328125 206.5078125 231.7890625 C202.04358562 226.49213008 199.67661473 221.743441 199.9375 214.625 C201.10789769 206.75141554 207.567314 201.4627125 212.75 195.875 C232.22579454 174.57518845 245.03830483 148.44495181 254.625 121.4375 C254.98045898 120.44314941 255.33591797 119.44879883 255.70214844 118.42431641 C256.01958008 117.49925293 256.33701172 116.57418945 256.6640625 115.62109375 C256.94717285 114.8005249 257.2302832 113.97995605 257.52197266 113.13452148 C258.2304651 110.83155053 258.2304651 110.83155053 257 108 Z M-294 147 C-295.48693359 148.17755859 -295.48693359 148.17755859 -297.00390625 149.37890625 C-301.74605233 153.19197881 -306.23515404 157.07470265 -310.45703125 161.45703125 C-312 163 -312 163 -315 165.4375 C-318.01582789 168.01351966 -320.47161341 170.70834738 -323.03125 173.72265625 C-325.20422487 176.23623631 -327.47554183 178.64048996 -329.75 181.0625 C-335.28539581 187.12105822 -340.03363858 193.66322872 -344.79736328 200.33496094 C-346.38229623 202.52928548 -348.03250252 204.67073855 -349.6875 206.8125 C-352.19574254 209.61347462 -352.19574254 209.61347462 -352 212 C-352.99 212.495 -352.99 212.495 -354 213 C-348.06985753 221.10270618 -341.76326392 228.62286043 -334.82373047 235.88500977 C-331.70612367 239.14802239 -328.82056419 242.47277178 -326 246 C-324.84533231 247.09809154 -323.65750369 248.1624861 -322.4375 249.1875 C-320.15396596 251.12995974 -317.91417674 253.08137646 -315.73828125 255.14453125 C-300.95194706 269.14164195 -284.10257383 280.23547767 -266.58056641 290.484375 C-264.23135884 291.86411772 -261.90046515 293.26951559 -259.57421875 294.6875 C-258.32089085 295.43846609 -257.06703482 296.18855189 -255.8125 296.9375 C-254.76707031 297.56527344 -253.72164063 298.19304687 -252.64453125 298.83984375 C-250.15529358 300.15963137 -250.15529358 300.15963137 -247.8671875 299.92578125 C-232.09001806 292.10320979 -220.92155967 263.69011926 -215.625 248.0625 C-205.56190407 216.89292995 -205.60729106 183.48922039 -220.46533203 153.79370117 C-224.91131173 145.20675862 -229.80736877 137.45195362 -236 130 C-236.6290625 129.22011719 -237.258125 128.44023437 -237.90625 127.63671875 C-241.25040547 123.62519892 -244.42641717 120.5526974 -249 118 C-262.74132484 118 -283.52012174 138.67814043 -294 147 Z M-128 373 C-124.93350278 376.98306391 -121.85696762 379.81879368 -117.625 382.5 C-117.01213135 382.88873291 -116.3992627 383.27746582 -115.76782227 383.67797852 C-99.32505975 393.73507991 -80.76640444 395.50218726 -62 393 C-65.06031657 389.61648168 -68.80401974 387.66375953 -72.72265625 385.40234375 C-74.99091122 383.98379335 -76.20984954 382.72023772 -77.84082031 380.54589844 C-80.78662286 376.82370328 -83.44391136 373.60177856 -88.24160767 372.47225952 C-94.69403537 371.74362103 -101.15380596 372.08885509 -107.625 372.375 C-109.6027518 372.42522965 -111.58062648 372.4708449 -113.55859375 372.51171875 C-118.37545986 372.62123163 -123.18636215 372.79336517 -128 373 Z " fill="#000000" transform="translate(397,26)"/>
<path d="M0 0 C7.03422485 4.87086891 11.1335136 11.32927219 12.7578125 19.74609375 C13.75412443 27.93117941 11.33070536 34.55323131 7.0703125 41.49609375 C0.3996618 47.98645659 -6.36726581 51.47065618 -15.6796875 51.84375 C-23.61136719 51.53391876 -29.90775205 48.25310627 -35.35546875 42.5234375 C-41.87044844 34.44378359 -42.99410809 28.04740577 -42.2421875 17.74609375 C-41.06047772 10.27049494 -35.85894613 4.51949523 -30.2421875 -0.25390625 C-20.25138464 -5.71106748 -9.92838628 -5.55228571 0 0 Z " fill="#000000" transform="translate(137.2421875,198.25390625)"/>
<path d="M0 0 C0.77538116 -0.00428513 1.55076233 -0.00857025 2.34963989 -0.01298523 C3.98519925 -0.01871116 5.62078406 -0.01924162 7.25634766 -0.01489258 C9.74296101 -0.01173759 12.22837769 -0.03519487 14.71484375 -0.06054688 C16.30989435 -0.06282074 17.90494811 -0.06352296 19.5 -0.0625 C20.23564178 -0.07170975 20.97128357 -0.08091949 21.72921753 -0.09040833 C28.89900081 -0.02697934 34.64731764 2.21071681 39.8828125 7.30078125 C43.59235393 12.54530535 43.69705737 18.10141689 42.8828125 24.30078125 C40.49978057 29.44813021 36.70424048 32.49294268 31.8828125 35.30078125 C26.05260808 37.24418272 19.40484209 36.60787102 13.2878418 36.65087891 C11.56830267 36.66739581 9.84883099 36.69462954 8.12963867 36.73291016 C-9.11988248 37.11457344 -9.11988248 37.11457344 -14.74169922 32.69262695 C-19.05074367 28.33233899 -22.24549185 24.94379501 -22.4296875 18.61328125 C-22.3682564 13.29181263 -21.27612118 10.56961055 -18.1171875 6.30078125 C-12.56174066 1.03022912 -7.4884222 -0.00922684 0 0 Z " fill="#000000" transform="translate(277.1171875,305.69921875)"/>
<path d="M0 0 C5.53244475 2.92394558 9.63502027 7.51056328 12.03125 13.31640625 C12.70500822 18.50277766 12.69050549 22.94718331 10.40625 27.69140625 C5.54810398 33.06093607 1.10441527 36.93926132 -6.34375 37.62890625 C-14.45041141 36.93005613 -18.70184399 33.14657191 -23.78125 27.19140625 C-26.06319984 21.66668558 -25.70769518 15.7179781 -23.96875 10.06640625 C-18.11680399 2.01998048 -10.17986666 -3.53467592 0 0 Z " fill="#000000" transform="translate(257.96875,205.68359375)"/>
</svg>
