<svg width="296" height="172" viewBox="0 0 296 172" fill="none" xmlns="http://www.w3.org/2000/svg">
<path fill-rule="evenodd" clip-rule="evenodd" d="M135.84 33.7562C134.408 36.1597 133.263 38.8119 132.415 41.5929C120.269 41.6751 111.603 53.3559 114.945 65.1199C115.051 65.4931 115.158 65.8681 115.265 66.2447C119.309 80.4791 132.226 90.2905 146.922 90.2905H176.478C178.54 90.2905 180.318 88.8333 180.739 86.8C181.172 84.9163 183.385 74.3893 185.646 63.419C186.692 58.342 187.733 53.3859 188.564 49.4713C189.422 45.4314 186.277 41.489 182.177 41.4891C182.366 38.892 182.228 36.8868 182.177 34.2793C191.399 34.3124 197.459 41.6701 195.574 50.7651C191.929 68.3594 186.502 93.9575 185.993 95.8027C185.713 96.9577 184.686 97.7702 183.506 97.7702H130.089C122.317 97.7702 115.494 92.5636 113.389 85.0271C105.259 56.0501 98.5717 32.5584 96.7917 26.4084C95.6196 22.5561 92.0887 19.926 88.0893 19.926H84.38C72.8343 19.926 72.69 19.8706 72.0646 16.2138C71.8241 14.8841 72.0165 14.2192 72.7862 13.3328C73.7484 12.2247 74.2294 12.1693 86.9297 12.1693H98.2253C99.3162 12.1693 100.278 12.8898 100.592 13.9422C100.749 14.4839 101.218 16.1697 101.837 18.3959L101.839 18.4022C102.36 20.2732 102.986 22.5267 103.623 24.8016C105.07 30.129 109.888 33.8138 115.37 33.7865L117.237 33.7773C118.737 33.7773 121.11 33.774 124.122 33.7698C127.38 33.7653 131.384 33.7598 135.84 33.7562Z" fill="#001A32"/>
<path d="M127.956 109.992C127.956 115.703 123.36 120.333 117.691 120.333C112.022 120.333 107.427 115.703 107.427 109.992C107.427 104.28 112.022 99.6505 117.691 99.6505C123.36 99.6505 127.956 104.28 127.956 109.992Z" fill="#001A32"/>
<path d="M187.677 109.992C187.677 115.703 183.082 120.333 177.413 120.333C171.744 120.333 167.148 115.703 167.148 109.992C167.148 104.28 171.744 99.6505 177.413 99.6505C183.082 99.6505 187.677 104.28 187.677 109.992Z" fill="#001A32"/>
<path d="M128.627 75.2918C136.011 71.3968 136.208 70.0467 136.208 70.0467C131.303 60.9034 132.085 46.9094 137.951 37.4486C145.741 24.8785 164.367 25.6118 172.58 7.7463C174.501 3.57625 185.81 42.5005 174.743 62.5547C166.65 77.213 151.75 78.7178 147.368 78.2893C143.397 77.8992 140.012 75.8438 140.012 75.8438C134.426 79.9385 131.294 80.9013 131.294 80.9013C129.197 81.9267 126.146 76.5903 128.627 75.2918ZM143.116 71.004C161.549 57.7999 169.666 31.0121 169.666 31.0121C169.666 31.0121 161.609 51.7886 140.418 67.8698C140.798 69.101 142.102 70.5935 143.116 71.004Z" fill="#24812E"/>
<path d="M166.287 171.978C164.478 171.978 162.788 171.813 161.214 171.484C159.665 171.178 158.361 170.766 157.305 170.248C156.248 169.731 155.379 169.236 154.698 168.766C154.04 168.295 153.489 167.825 153.042 167.354L153.923 158.777C154.886 160.071 156.177 161.201 157.798 162.166C159.418 163.107 161.167 163.577 163.046 163.577C164.925 163.577 166.275 163.377 167.097 162.977C167.942 162.577 168.365 161.848 168.365 160.789C168.365 159.66 167.883 158.695 166.921 157.895C165.981 157.095 164.349 156.13 162.025 155.001C161.179 154.577 160.463 154.201 159.876 153.871C159.289 153.518 158.502 152.954 157.516 152.177C156.553 151.377 155.766 150.554 155.156 149.706C154.545 148.836 154.005 147.73 153.536 146.389C153.066 145.024 152.831 143.565 152.831 142.012C152.831 133.612 157.563 129.412 167.026 129.412C168.529 129.412 169.938 129.576 171.253 129.906C172.592 130.212 173.637 130.553 174.388 130.929C175.14 131.306 175.821 131.753 176.431 132.271C177.065 132.765 177.464 133.118 177.629 133.329C177.793 133.518 177.91 133.671 177.981 133.788L176.22 140.6C175.304 139.518 174.153 138.718 172.768 138.2C171.406 137.659 170.103 137.388 168.858 137.388C165.852 137.388 164.349 138.33 164.349 140.212C164.349 140.706 164.443 141.153 164.631 141.553C164.819 141.953 165.124 142.318 165.547 142.647C165.97 142.977 166.357 143.259 166.709 143.494C167.085 143.73 167.59 144.024 168.224 144.377C168.881 144.706 169.375 144.977 169.703 145.189C173.132 146.648 175.644 148.377 177.241 150.377C178.861 152.377 179.672 154.812 179.672 157.683C179.672 162.342 178.521 165.895 176.22 168.342C173.942 170.766 170.631 171.978 166.287 171.978Z" fill="#001A32"/>
<path d="M192.034 171.978C188.864 171.978 186.645 171.025 185.377 169.119C184.132 167.213 183.51 163.989 183.51 159.448V147.448H181.079V142.542L185.236 141.236L188.828 133.012H195.028V141.236H200.805V147.448H194.922V160.577C194.922 162.46 195.192 163.707 195.732 164.319C196.272 164.93 197.106 165.236 198.233 165.236C198.726 165.236 199.172 165.177 199.572 165.06C199.971 164.942 200.3 164.777 200.558 164.566V169.366C200.206 169.719 199.748 170.072 199.184 170.425C198.621 170.754 197.681 171.095 196.366 171.448C195.075 171.801 193.631 171.978 192.034 171.978Z" fill="#001A32"/>
<path d="M218.074 167.742C219.108 167.742 219.894 167.319 220.434 166.472C220.998 165.601 221.28 164.413 221.28 162.907V151.754C221.28 147.165 220.199 144.871 218.039 144.871C217.029 144.871 216.243 145.283 215.679 146.106C215.116 146.93 214.834 148.095 214.834 149.601V161.071C214.834 165.519 215.914 167.742 218.074 167.742ZM217.793 171.978C212.415 171.978 208.482 170.754 205.993 168.307C203.503 165.86 202.259 161.954 202.259 156.589C202.259 151.271 203.515 147.271 206.028 144.589C208.54 141.883 212.626 140.53 218.286 140.53C223.804 140.53 227.784 141.824 230.227 144.412C232.692 146.977 233.925 150.871 233.925 156.095C233.925 161.507 232.622 165.507 230.015 168.095C227.432 170.683 223.358 171.978 217.793 171.978Z" fill="#001A32"/>
<path d="M261.327 168.307L261.01 168.695C260.799 168.93 260.423 169.236 259.883 169.613C259.366 169.966 258.732 170.331 257.981 170.707C257.253 171.06 256.266 171.354 255.022 171.589C253.801 171.848 252.486 171.978 251.077 171.978C246.31 171.978 242.658 170.578 240.122 167.778C237.61 164.977 236.353 161.271 236.353 156.66C236.353 154.165 236.741 151.895 237.516 149.848C238.291 147.8 239.347 146.106 240.686 144.765C242.048 143.4 243.633 142.353 245.441 141.624C247.273 140.871 249.245 140.494 251.359 140.494C255.445 140.494 258.615 141.471 260.869 143.424C261.362 143.918 261.609 144.165 261.609 144.165L261.08 152.459L256.079 152.495L254.071 147.095C253.883 147.048 253.625 147.024 253.296 147.024C251.159 147.024 249.68 147.765 248.858 149.248C248.059 150.706 247.66 153.248 247.66 156.871C247.66 158.448 247.789 159.801 248.048 160.93C248.306 162.036 248.599 162.871 248.928 163.436C249.257 163.977 249.691 164.401 250.231 164.707C250.795 165.013 251.253 165.189 251.605 165.236C251.957 165.283 252.392 165.307 252.908 165.307C254.083 165.307 255.28 165.166 256.501 164.883C257.746 164.601 258.767 164.142 259.566 163.507L261.327 168.307Z" fill="#001A32"/>
<path d="M282.263 171.236L276.803 156.801L282.58 141.236H295.789L286.56 155.107L296 171.236H282.263ZM264.616 171.236V131.318L262.502 130.047V126.765L273.809 125H276.099V171.236H264.616Z" fill="#001A32"/>
<path d="M13.4555 171.978C11.6473 171.978 9.95658 171.813 8.38325 171.484C6.83341 171.178 5.53013 170.766 4.47342 170.248C3.4167 169.731 2.54785 169.236 1.86686 168.766C1.20935 168.295 0.65751 167.825 0.211342 167.354L1.09194 158.777C2.05472 160.071 3.34626 161.201 4.96655 162.166C6.58684 163.107 8.33629 163.577 10.2149 163.577C12.0935 163.577 13.4437 163.377 14.2656 162.977C15.111 162.577 15.5337 161.848 15.5337 160.789C15.5337 159.66 15.0523 158.695 14.0895 157.895C13.1502 157.095 11.5182 156.13 9.1934 155.001C8.34803 154.577 7.63181 154.201 7.04475 153.871C6.45769 153.518 5.67102 152.954 4.68476 152.177C3.72198 151.377 2.93531 150.554 2.32477 149.706C1.71422 148.836 1.17412 147.73 0.704475 146.389C0.234825 145.024 0 143.565 0 142.012C0 133.612 4.73172 129.412 14.1952 129.412C15.698 129.412 17.107 129.576 18.422 129.906C19.7605 130.212 20.8055 130.553 21.5569 130.929C22.3084 131.306 22.9894 131.753 23.5999 132.271C24.2339 132.765 24.6331 133.118 24.7975 133.33C24.9619 133.518 25.0793 133.671 25.1498 133.788L23.3886 140.6C22.4727 139.518 21.3221 138.718 19.9366 138.2C18.5747 137.659 17.2714 137.388 16.0268 137.388C13.021 137.388 11.5182 138.33 11.5182 140.212C11.5182 140.706 11.6121 141.153 11.8 141.553C11.9878 141.953 12.2931 142.318 12.7158 142.647C13.1385 142.977 13.5259 143.259 13.8782 143.495C14.2539 143.73 14.7587 144.024 15.3928 144.377C16.0503 144.706 16.5434 144.977 16.8722 145.189C20.3006 146.648 22.8132 148.377 24.4101 150.377C26.0303 152.377 26.8405 154.812 26.8405 157.683C26.8405 162.342 25.6899 165.895 23.3886 168.342C21.1108 170.766 17.7997 171.978 13.4555 171.978Z" fill="#24812E"/>
<path d="M42.3376 171.236H30.9603V148.401L28.8469 147.095V143.318L36.42 141.236H42.408V145.789C42.5254 145.624 42.6898 145.412 42.9011 145.153C43.136 144.871 43.5587 144.436 44.1692 143.847C44.7797 143.259 45.402 142.742 46.0361 142.294C46.6936 141.847 47.4802 141.447 48.396 141.094C49.3354 140.718 50.2629 140.53 51.1787 140.53C53.527 140.53 55.3234 140.977 56.568 141.871C57.8125 142.765 58.6931 144.224 59.2097 146.248C60.0081 144.859 61.2292 143.565 62.873 142.365C64.5403 141.142 66.3719 140.53 68.3679 140.53C70.5753 140.53 72.2895 140.918 73.5106 141.694C74.7551 142.447 75.6592 143.742 76.2228 145.577C76.7864 147.412 77.0682 150.001 77.0682 153.342V171.236H65.6205V152.318C65.6205 151.283 65.3739 150.471 64.8808 149.883C64.3876 149.295 63.6362 149.001 62.6264 149.001C61.9454 149.001 61.0179 149.565 59.8438 150.695C59.9142 151.824 59.9494 153.048 59.9494 154.365V171.236H48.3256V152.318C48.396 150.106 47.4567 149.001 45.5077 149.001C45.3668 149.001 45.2259 149.012 45.085 149.036C44.9676 149.059 44.8502 149.083 44.7328 149.106C44.6388 149.13 44.5214 149.177 44.3805 149.248C44.2631 149.295 44.1575 149.342 44.0635 149.389C43.9696 149.412 43.8639 149.471 43.7465 149.565C43.6291 149.636 43.5352 149.695 43.4647 149.742C43.3943 149.789 43.2886 149.871 43.1477 149.989C43.0303 150.083 42.9364 150.154 42.8659 150.201C42.819 150.248 42.725 150.33 42.5841 150.448C42.4667 150.542 42.3845 150.612 42.3376 150.659V171.236Z" fill="#24812E"/>
<path d="M96.7423 168.095L96.3901 168.483C96.1552 168.766 95.7912 169.095 95.2981 169.472C94.8285 169.848 94.2766 170.225 93.6426 170.601C93.0321 170.978 92.2806 171.295 91.3883 171.554C90.4959 171.836 89.5801 171.978 88.6408 171.978C82.3006 171.978 79.1304 168.836 79.1304 162.554C79.1304 161.33 79.3535 160.213 79.7997 159.201C80.2458 158.166 80.8212 157.295 81.5256 156.589C82.2301 155.883 83.0755 155.26 84.0617 154.718C85.048 154.154 86.0343 153.718 87.0205 153.412C88.0303 153.083 89.087 152.812 90.1907 152.601C91.2943 152.389 92.2806 152.248 93.1495 152.177C94.0183 152.107 94.8519 152.071 95.6504 152.071V151.436C95.6504 150.001 95.2629 148.989 94.488 148.401C93.7365 147.812 92.5154 147.518 90.8247 147.518C89.3688 147.518 87.8542 147.695 86.2808 148.048C84.7075 148.377 83.4747 148.777 82.5823 149.248L80.328 144.447C81.9248 143.412 84.003 142.506 86.5626 141.73C89.1222 140.93 91.7288 140.53 94.3823 140.53C96.7306 140.53 98.6679 140.765 100.194 141.236C101.721 141.683 102.953 142.459 103.893 143.565C104.855 144.647 105.536 146.036 105.936 147.73C106.335 149.401 106.534 151.53 106.534 154.118V168.483L107.521 171.236H97.8695L96.7423 168.095ZM93.9596 165.766C94.2649 165.766 94.5467 165.707 94.805 165.589C95.0868 165.448 95.2981 165.319 95.439 165.201C95.5799 165.06 95.6504 164.989 95.6504 164.989V156.518C94.2179 156.518 93.079 156.918 92.2337 157.718C91.3883 158.495 90.9656 159.707 90.9656 161.354C90.9656 164.295 91.9636 165.766 93.9596 165.766Z" fill="#24812E"/>
<path d="M122.417 171.236H111.039V148.401L108.926 147.095V143.106L116.499 141.236H119.352L120.374 149.636C121.336 143.871 124.424 140.989 129.637 140.989C130.224 140.989 130.835 141.094 131.469 141.306L130.271 153.871C129.778 153.424 128.698 153.201 127.031 153.201C124.636 153.201 123.098 153.836 122.417 155.107V171.236Z" fill="#24812E"/>
<path d="M142.5 171.978C139.33 171.978 137.111 171.025 135.843 169.119C134.599 167.213 133.976 163.989 133.976 159.448V147.448H131.546V142.542L135.702 141.236L139.295 133.012H145.494V141.236H151.271V147.448H145.389V160.577C145.389 162.46 145.659 163.707 146.199 164.319C146.739 164.93 147.573 165.236 148.7 165.236C149.193 165.236 149.639 165.177 150.038 165.06C150.438 164.942 150.766 164.777 151.025 164.566V169.366C150.672 169.719 150.214 170.072 149.651 170.425C149.087 170.754 148.148 171.095 146.833 171.448C145.541 171.801 144.097 171.978 142.5 171.978Z" fill="#24812E"/>
</svg>
